<?xml version="1.0" encoding="UTF-8"?>
<svg id="Layer_1" data-name="Layer 1" xmlns="http://www.w3.org/2000/svg" version="1.1" xmlns:xlink="http://www.w3.org/1999/xlink" viewBox="0 0 600 200">
  <defs>
    <style>
      .cls-1 {
        fill: url(#linear-gradient);
      }

      .cls-1, .cls-2 {
        stroke-width: 0px;
      }

      .cls-2 {
        fill: #ec008c;
      }
    </style>
    <linearGradient id="linear-gradient" x1="21.26" y1="100" x2="218.75" y2="100" gradientUnits="userSpaceOnUse">
      <stop offset="0" stop-color="#92278f"/>
      <stop offset=".17" stop-color="#b5178d"/>
      <stop offset=".34" stop-color="#d30a8c"/>
      <stop offset=".5" stop-color="#e5028c"/>
      <stop offset=".6" stop-color="#ec008c"/>
    </linearGradient>
  </defs>
  <g>
    <path class="cls-2" d="M131.8,56.4c-.42,2.48-1.14,4.91-1.77,7.35-.1.41-.41.76-.69,1.28-2.3-4.22-4.71-8.22-3.91-13.19.17-1.03.62-1.88,1.58-2.39,1.53-.81,2.81-.49,3.68,1.01,1.07,1.84,1.46,3.89,1.12,5.93Z"/>
    <path class="cls-1" d="M150.36,10.95c-11.83,2.59-21.81,8.3-30.33,16.91-1.38-1.26-2.52-2.36-3.72-3.39-16.5-14.11-35.26-18.42-55.92-11.72C19.75,25.94,7.99,76.72,38.34,107.55c18.6,18.9,37.5,37.51,56.2,56.31,8.35,8.39,16.56,16.92,25.91,26.48,2.04-2.69,3.33-4.87,5.06-6.6,25.16-25.25,50.35-50.48,75.6-75.64,11.79-11.74,17.72-25.79,17.63-42.46-.18-35.03-34.17-62.18-68.38-54.7ZM155.62,120.06c-1.31,11.05-7,19.39-16.69,24.67-10.79,5.87-21.9,5.85-32.81.13-6.62-3.47-10.27-9.41-12.43-16.35-2.1-6.76-2-13.42,1.3-19.83,3.76-7.31,11.93-10.89,19.86-8.77,6.06,1.62,9.88,7.91,8.47,13.95-.33,1.39-.85,2.28-1.68,2.87,2.97-5.26-.85-14.17-8.79-15.33-6.18-.91-15,2.97-16.99,11.59-2.48,10.75,1.37,22.82,12.57,28.84,4.81,2.59,10,3.35,15.39,2.89,3.8-.32,7.5-1.07,10.91-2.86,6.23-3.26,9.84-8.56,11.7-15.18,2.38-8.47,1.16-16.49-2.95-24.2-2.86-5.36-6.51-10.14-10.13-14.98-3.02-4.04-5.92-8.16-8.87-12.24-.07-.1-.16-.19-.31-.38-3.98,3.9-8.51,6.68-13.83,8.12.19-.1.38-.23.58-.31,4.6-1.97,8.34-5.12,11.79-8.67.51-.52.48-.88.14-1.47-2.57-4.43-4.84-8.98-5.97-14.02-.65-2.88-.87-5.79.09-8.65,1.87-5.58,8.51-8.31,13.38-5.45,2.8,1.64,4.05,4.33,4.33,7.44.49,5.34-.54,10.36-3.58,14.86-.35.52-.25.87.03,1.37,1.98,3.68,4.82,6.72,7.34,10,4.87,6.3,9.58,12.73,13.1,19.92,3.4,6.95,4.98,14.31,4.06,22.04Z"/>
    <path class="cls-1" d="M150.36,10.95c-11.83,2.59-21.81,8.3-30.33,16.91-1.38-1.26-2.52-2.36-3.72-3.39-16.5-14.11-35.26-18.42-55.92-11.72C19.75,25.94,7.99,76.72,38.34,107.55c18.6,18.9,37.5,37.51,56.2,56.31,8.35,8.39,16.56,16.92,25.91,26.48,2.04-2.69,3.33-4.87,5.06-6.6,25.16-25.25,50.35-50.48,75.6-75.64,11.79-11.74,17.72-25.79,17.63-42.46-.18-35.03-34.17-62.18-68.38-54.7ZM155.62,120.06c-1.31,11.05-7,19.39-16.69,24.67-10.79,5.87-21.9,5.85-32.81.13-6.62-3.47-10.27-9.41-12.43-16.35-2.1-6.76-2-13.42,1.3-19.83,3.76-7.31,11.93-10.89,19.86-8.77,6.06,1.62,9.88,7.91,8.47,13.95-.33,1.39-.85,2.28-1.68,2.87,2.97-5.26-.85-14.17-8.79-15.33-6.18-.91-15,2.97-16.99,11.59-2.48,10.75,1.37,22.82,12.57,28.84,4.81,2.59,10,3.35,15.39,2.89,3.8-.32,7.5-1.07,10.91-2.86,6.23-3.26,9.84-8.56,11.7-15.18,2.38-8.47,1.16-16.49-2.95-24.2-2.86-5.36-6.51-10.14-10.13-14.98-3.02-4.04-5.92-8.16-8.87-12.24-.07-.1-.16-.19-.31-.38-3.98,3.9-8.51,6.68-13.83,8.12.19-.1.38-.23.58-.31,4.6-1.97,8.34-5.12,11.79-8.67.51-.52.48-.88.14-1.47-2.57-4.43-4.84-8.98-5.97-14.02-.65-2.88-.87-5.79.09-8.65,1.87-5.58,8.51-8.31,13.38-5.45,2.8,1.64,4.05,4.33,4.33,7.44.49,5.34-.54,10.36-3.58,14.86-.35.52-.25.87.03,1.37,1.98,3.68,4.82,6.72,7.34,10,4.87,6.3,9.58,12.73,13.1,19.92,3.4,6.95,4.98,14.31,4.06,22.04Z"/>
  </g>
  <g>
    <path class="cls-2" d="M253.86,117.58c5.09,0,8.48-1.94,8.48-5.88s-3.45-6.42-11.51-8.42c-7.63-1.88-13.93-5.45-13.93-12.42,0-7.39,6.06-12.05,14.72-12.05,9.33,0,15.56,5.81,16.53,13.93l-6.6.36c-.73-5.09-4.54-8.42-10.05-8.42-4.6,0-7.99,2.42-7.93,6.24.06,4.78,5.87,6.12,10.9,7.51,8.24,2.12,14.54,6.12,14.54,12.78,0,8.05-7.33,12.29-15.5,12.29-9.75,0-16.78-5.75-17.44-14.6l6.6-.36c1.03,5.39,4.85,9.02,11.2,9.02Z"/>
    <path class="cls-2" d="M284.63,83.43v7.27h8.54v5.21h-8.54v17.75c0,2.6,1.27,3.94,3.75,3.94h4.72v5.21h-5.27c-6.18,0-9.51-3.21-9.51-9.14v-17.75h-4.84v-5.21h4.84v-7.27h6.3Z"/>
    <path class="cls-2" d="M305.95,90.69l.18,6.06c1.03-4.12,3.45-6.06,7.63-6.06h3.09v5.21h-3.15c-4.97,0-7.21,2.73-7.21,8.12v18.77h-6.3v-32.1h5.75Z"/>
    <path class="cls-2" d="M335.32,89.97c8.72,0,13.45,4.84,13.45,13.57v12.11c0,1.51.67,2.06,1.94,2.06h1.33v5.09h-2.12c-2.91.06-6.72-.54-6.96-4.91-1.39,3.03-4.97,5.63-10.23,5.63-6.42,0-11.57-3.39-11.57-9.14,0-6.48,4.78-8.3,12.11-9.69l9.21-1.82c-.06-5.15-2.42-7.63-7.15-7.63-3.75,0-6.24,1.88-7.15,5.45l-6.48-.42c1.27-6.42,6.36-10.29,13.63-10.29ZM333.93,118.55c4.91,0,8.66-3.45,8.66-10.48v-.3l-6.9,1.21c-4.48.79-7.99,1.15-7.99,5.27,0,2.36,2,4.3,6.24,4.3Z"/>
    <path class="cls-2" d="M365.61,83.43v7.27h8.54v5.21h-8.54v17.75c0,2.6,1.27,3.94,3.75,3.94h4.72v5.21h-5.27c-6.18,0-9.51-3.21-9.51-9.14v-17.75h-4.84v-5.21h4.84v-7.27h6.3Z"/>
    <path class="cls-2" d="M387.47,79.79v15.2c1.88-3.51,5.51-5.03,9.45-5.03,7.21,0,10.78,5.33,10.78,12.17v20.65h-6.3v-18.47c0-5.63-1.7-8.72-6.18-8.72-4.78,0-7.75,3.09-7.75,8.72v18.47h-6.3v-43h6.3Z"/>
    <path class="cls-2" d="M427.33,95.3c-3.27,0-5.93,1.7-5.87,4.54,0,2.91,3.82,4.12,7.08,4.72,7.87,1.45,13.08,3.57,13.08,9.87s-6.42,9.08-13.02,9.08c-8.12,0-13.99-4.18-14.47-10.84l6.48-.42c.61,3.63,3.45,5.88,7.93,5.88,2.85,0,6.54-.97,6.54-3.94-.06-3.51-4.12-3.94-7.63-4.72-6.66-1.45-12.54-3.21-12.54-9.39s5.03-10.11,12.96-10.11c6.84,0,12.17,4.06,13.2,10.42l-6.48.36c-.67-3.39-3.94-5.45-7.27-5.45Z"/>
    <path class="cls-2" d="M448.83,90.69h5.88l.18,4.66c1.76-3.45,5.09-5.39,9.75-5.39,9.45,0,13.81,7.81,13.81,16.78s-4.36,16.78-13.81,16.78c-4.42,0-7.69-1.76-9.51-5.09v13.44h-6.3v-41.18ZM463.18,118.01c6.12,0,8.6-5.45,8.6-11.26s-2.48-11.26-8.6-11.26-8.66,5.51-8.66,11.26,2.6,11.26,8.66,11.26Z"/>
    <path class="cls-2" d="M498.43,89.97c8.72,0,13.45,4.84,13.45,13.57v12.11c0,1.51.67,2.06,1.94,2.06h1.33v5.09h-2.12c-2.91.06-6.72-.54-6.96-4.91-1.39,3.03-4.97,5.63-10.23,5.63-6.42,0-11.57-3.39-11.57-9.14,0-6.48,4.78-8.3,12.11-9.69l9.21-1.82c-.06-5.15-2.42-7.63-7.15-7.63-3.75,0-6.24,1.88-7.15,5.45l-6.48-.42c1.27-6.42,6.36-10.29,13.63-10.29ZM497.04,118.55c4.91,0,8.66-3.45,8.66-10.48v-.3l-6.9,1.21c-4.48.79-7.99,1.15-7.99,5.27,0,2.36,2,4.3,6.24,4.3Z"/>
    <path class="cls-2" d="M534.53,95.48c-5.51,0-8.66,4.24-8.66,11.26s3.15,11.26,8.66,11.26c3.82,0,7.02-2.48,7.69-6.96l6.6.36c-1.03,7.51-7.03,12.11-14.29,12.11-9.21,0-15.2-6.54-15.2-16.78s6-16.78,15.2-16.78c7.02,0,13.14,4.36,13.99,11.57l-6.54.36c-.61-4.06-3.82-6.42-7.45-6.42Z"/>
    <path class="cls-2" d="M568.87,89.97c7.51,0,14.05,4.97,14.41,16.41l.06,2.18h-23.07c.49,6,3.51,9.51,8.6,9.51,3.21,0,6.06-1.82,7.39-4.91l6.6.48c-1.88,6.06-7.51,9.87-13.99,9.87-9.21,0-15.2-6.54-15.2-16.78s6-16.78,15.2-16.78ZM576.69,103.71c-.85-6.18-4.18-8.3-7.81-8.3-4.72,0-7.69,3.09-8.48,8.3h16.29Z"/>
  </g>
</svg>